<svg width="20" height="23" viewBox="0 0 20 23" fill="none" xmlns="http://www.w3.org/2000/svg">
<path d="M19 10.5761C19.0034 12.0631 18.6951 13.53 18.1 14.8572C17.3944 16.4477 16.3098 17.7855 14.9674 18.7207C13.6251 19.6559 12.0782 20.1516 10.5 20.1522C9.18013 20.1561 7.87812 19.8087 6.7 19.1383L1 21.2788L2.9 14.8572C2.30493 13.53 1.99656 12.0631 2 10.5761C2.00061 8.79809 2.44061 7.05534 3.27072 5.54311C4.10083 4.03087 5.28825 2.80887 6.7 2.01397C7.87812 1.34357 9.18013 0.996155 10.5 1.00003H11C13.0843 1.12958 15.053 2.12073 16.5291 3.7837C18.0052 5.44668 18.885 7.66461 19 10.0128V10.5761Z" stroke="white" stroke-width="2" stroke-linecap="round" stroke-linejoin="round"/>
</svg>
