<svg width="23" height="26" viewBox="0 0 23 26" fill="none" xmlns="http://www.w3.org/2000/svg">
<path d="M13.9381 5.5064C14.9149 5.72109 15.8125 6.25926 16.5162 7.05203C17.2199 7.84479 17.6976 8.85609 17.8881 9.95648M13.9381 1C15.9674 1.25398 17.8597 2.27776 19.3044 3.90326C20.749 5.52876 21.6601 7.65935 21.8881 9.94521M20.8881 18.9355V22.3153C20.8892 22.629 20.8322 22.9396 20.7206 23.2271C20.6091 23.5146 20.4454 23.7726 20.2402 23.9848C20.035 24.1969 19.7927 24.3584 19.5289 24.4589C19.265 24.5594 18.9855 24.5967 18.7081 24.5685C15.631 24.1918 12.6751 23.0072 10.0781 21.1098C7.66194 19.3801 5.61345 17.0723 4.07812 14.3502C2.38809 11.4111 1.33636 8.06491 1.00812 4.58259C0.983127 4.27105 1.01599 3.95706 1.10462 3.66061C1.19324 3.36416 1.33569 3.09175 1.52288 2.86072C1.71008 2.62969 1.93792 2.4451 2.19191 2.31871C2.44589 2.19232 2.72046 2.1269 2.99812 2.1266H5.99812C6.48342 2.12122 6.95391 2.31483 7.32188 2.67135C7.68985 3.02787 7.93019 3.52296 7.99812 4.06435C8.12474 5.14597 8.35957 6.20797 8.69812 7.2301C8.83266 7.63334 8.86178 8.07158 8.78202 8.49289C8.70227 8.9142 8.51698 9.30092 8.24812 9.60723L6.97812 11.038C8.40167 13.8585 10.4746 16.1938 12.9781 17.7976L14.2481 16.3668C14.52 16.0639 14.8633 15.8552 15.2372 15.7653C15.6112 15.6755 16.0002 15.7083 16.3581 15.8599C17.2654 16.2413 18.2081 16.5058 19.1681 16.6485C19.6539 16.7257 20.0975 17.0013 20.4146 17.423C20.7318 17.8447 20.9003 18.383 20.8881 18.9355Z" stroke="white" stroke-width="2" stroke-linecap="round" stroke-linejoin="round"/>
</svg>
